<svg xmlns="http://www.w3.org/2000/svg" width="13.137" height="13.137" viewBox="0 0 13.137 13.137"><defs><style>.a{fill:none;}.b{fill:#0a6c7e;}</style></defs><path class="a" d="M0,0H13.137V13.137H0Z"/><path class="b" d="M12.853,11.21v.547a1.1,1.1,0,0,1-1.095,1.095H4.095A1.094,1.094,0,0,1,3,11.758V4.095A1.094,1.094,0,0,1,4.095,3h7.663a1.1,1.1,0,0,1,1.095,1.095v.547H7.926A1.094,1.094,0,0,0,6.832,5.737v4.379A1.094,1.094,0,0,0,7.926,11.21ZM7.926,10.116H13.4V5.737H7.926Zm2.189-1.368a.821.821,0,1,1,.821-.821A.82.82,0,0,1,10.116,8.747Z" transform="translate(-1.358 -1.358)"/></svg>