<svg xmlns="http://www.w3.org/2000/svg" width="23.291" height="23.291" viewBox="0 0 23.291 23.291"><defs><style>.a{fill:none;}.b{fill:#fff;}</style></defs><path class="a" d="M0,0H23.291V23.291H0Z"/><path class="b" d="M9.8,20.448a1.931,1.931,0,0,0,3.862,0Zm8.608-4.066V10.734a6.67,6.67,0,0,0-5.134-6.492v-.7a1.543,1.543,0,0,0-3.086,0v.7a6.67,6.67,0,0,0-5.134,6.492v5.648L3,18.44v1.029H20.468V18.44Zm-2.795-3.7H12.7V15.6H10.764V12.685H7.852V10.734h2.911V7.823H12.7v2.911h2.911Z" transform="translate(-0.089 -0.059)"/></svg>