<svg xmlns="http://www.w3.org/2000/svg" xmlns:xlink="http://www.w3.org/1999/xlink" width="12.73" height="12.603" viewBox="0 0 12.73 12.603"><defs><style>.a{fill:#fff;}.b{clip-path:url(#a);}</style><clipPath id="a"><path class="a" d="M0,0H12.73V12.6H0Z"/></clipPath></defs><g class="b"><path class="a" d="M11.609,4.763A6.321,6.321,0,0,0,9.752,4.5a4.971,4.971,0,0,0-2.917.788A4.971,4.971,0,0,0,3.917,4.5,4.971,4.971,0,0,0,1,5.288v7.693a.284.284,0,0,0,.265.263c.053,0,.08-.026.133-.026a6.529,6.529,0,0,1,2.52-.578,4.971,4.971,0,0,1,2.917.788,6.439,6.439,0,0,1,2.917-.788,5.445,5.445,0,0,1,2.52.551.241.241,0,0,0,.133.026.284.284,0,0,0,.265-.263V5.288A3.632,3.632,0,0,0,11.609,4.763Zm0,7.089a6.222,6.222,0,0,0-1.857-.263,6.439,6.439,0,0,0-2.917.788V6.338A6.439,6.439,0,0,1,9.752,5.55a6.222,6.222,0,0,1,1.857.263Z" transform="translate(-0.47 -2.137)"/></g></svg>