<svg xmlns="http://www.w3.org/2000/svg" width="13.137" height="13.137" viewBox="0 0 13.137 13.137"><defs><style>.a{fill:#fff;}.b{fill:none;}</style></defs><path class="a" d="M11.758,2.095H11.21V1H10.116V2.095H5.737V1H4.642V2.095H4.095A1.094,1.094,0,0,0,3,3.189v7.663a1.094,1.094,0,0,0,1.095,1.095h7.663a1.1,1.1,0,0,0,1.095-1.095V3.189A1.1,1.1,0,0,0,11.758,2.095ZM7.926,3.737A1.642,1.642,0,1,1,6.284,5.379,1.64,1.64,0,0,1,7.926,3.737Zm3.284,6.568H4.642V9.758c0-1.095,2.189-1.7,3.284-1.7s3.284.6,3.284,1.7Z" transform="translate(-1.358 -0.453)"/><path class="b" d="M0,0H13.137V13.137H0Z"/></svg>